# xmcd CD database file
#
# Track frame offsets:
#	150
#	21702
#	32532
#	45382
#	57195
#	71745
#	83505
#	95105
#	116490
#	126972
#	142207
#	153762
#	166302
#	182242
#
# Disc length: 2816 seconds
#
# Revision: 0
# Processed by: cddbd v1.4PL0 Copyright (c) Steve Scherf et al.
# Submitted via: CDex 1.50
#
DISCID=c00afe0e
DTITLE=Pat James - Some like it country
DYEAR=2001
DGENRE=Country
TTITLE0=BUD'S PEARL
TTITLE1=A GOOD NIGHT IN CAVE CREEK
TTITLE2=JUST FILLIN' IN
TTITLE3=CITY LIGHTS
TTITLE4=LET ME LIVE LONG ENOUGH
TTITLE5=DOGGONE COWBOY
TTITLE6=I LOVE TO SEE YOU DANCIN'
TTITLE7=I'D GIVE IT ALL
TTITLE8=ARE THOSE REAL TEARS
TTITLE9=WHEN I SEE HER AGAIN
TTITLE10=GUESS MY EYES WERE BIGGER THAN MY HEART
TTITLE11=THE MAN YOU USED TO KNOW
TTITLE12=FORGIVE ME IF I FORGET
TTITLE13=A HONKYTONKIN' SONG
EXTD=YEAR: 2001
EXTT0=
EXTT1=
EXTT2=
EXTT3=
EXTT4=
EXTT5=
EXTT6=
EXTT7=
EXTT8=
EXTT9=
EXTT10=
EXTT11=
EXTT12=
EXTT13=
PLAYORDER=
